<?xml version="1.0" encoding="utf-8"?>
<!-- Generator: Adobe Illustrator 24.1.0, SVG Export Plug-In . SVG Version: 6.00 Build 0)  -->
<svg version="1.1" id="Layer_1" xmlns="http://www.w3.org/2000/svg" xmlns:xlink="http://www.w3.org/1999/xlink" x="0px" y="0px"
	 viewBox="0 0 428.4 167.2" style="enable-background:new 0 0 428.4 167.2;" xml:space="preserve">
<style type="text/css">
	.st0{fill-rule:evenodd;clip-rule:evenodd;fill:#F7A422;}
</style>
<g>
	<path class="st0" d="M65.5,20.1c-1.3,0.2-1.9,1.8-0.9,2.8c5.1,5.2,17.2,17.4,18.9,18.3c2.1,1.2,103.9,11.5,140.6,14.6
		c29.8,2.5,72.4,5.1,87.3,6.1c1.6,0.1,2.4-2,1.1-3c-10.2-7.7-37-26.9-62.2-36.4c-31.8-12-74.8-12.2-98.9-12
		C130.4,10.7,78.9,18.1,65.5,20.1z M76.6,105 M76.6,159.4 M76.6,97.2c18.7,0,33.9,15.7,33.9,35c0,19.3-15.2,35-33.9,35
		s-33.8-15.7-33.8-35C42.8,112.9,57.9,97.2,76.6,97.2z M350.6,159.4 M350.6,105 M350.6,97.2c18.7,0,33.8,15.7,33.8,35
		c0,19.3-15.1,35-33.8,35s-33.9-15.7-33.9-35C316.7,112.9,331.9,97.2,350.6,97.2z M31.5,13.2c0,0,38.1-8.9,50.2-9.4
		C93.8,3.3,201.1,0,218.4,3.3c17.1,3.3,48.7,14.1,102.9,48.2c0.2,0.1,0.4,0.2,0.6,0.2c4.8,0.9,63.2,11.4,82,17.3
		c17.4,5.4,18.6,16.5,18.6,18.9c0,0.3,0.1,0.6,0.2,0.8c1.1,1.9,5.8,10.1,5.8,17.9c0,8.9-1.4,24.8-2.8,29.1
		c-0.4,1.3-1.5,9.4-4.1,11.2c-6,4.1-17.6,4.8-30.5,5.1c0,0,0,0,0,0l0,0c-1.2,0.2-2.3-3.8-1.9-5c1.7-4.6,2.7-9.7,2.7-14.9
		c0-22.9-18-41.5-40.1-41.5c-22.1,0-40.1,18.6-40.1,41.5c0,4.6,0.7,9.1,2.1,13.2c1.4,4.3-1.7,8.6-6.2,8.5c-57.8-0.9-126.5,1-184.6,0
		c-4.9-0.1-8.4-4.8-7.1-9.6c1-3.7,1.6-7.6,1.6-11.6c0-24.2-19-43.9-42.4-43.9c-23.4,0-42.4,19.7-42.4,43.9c0,2.6,0.2,5.3,0.7,7.8
		c0.2,1.2-0.8,2.2-2,1.9c-9-2-24.9-6.5-27.2-14.8C0.8,116,0,99.2,1.6,97.6c1.3-1.3,4.9-4,6.5-5.1c0.4-0.3,0.7-0.8,0.7-1.4
		C8.6,86,7.9,60.2,9.5,57c1.6-3,22.8-25.7,29.6-32.8c0.9-0.9,0.4-2.5-0.8-2.8C33.9,20.3,26.5,17.7,31.5,13.2 M74.8,150
		c-0.1,0-0.1,0-0.2,0c-0.3-0.1-0.6-0.4-0.6-0.7v-14.4h-5.4c-0.3,0-0.5-0.2-0.6-0.4c-0.2-0.2-0.2-0.5,0-0.7l9.7-18.9
		c0.2-0.3,0.5-0.5,0.9-0.4c0.3,0.1,0.6,0.4,0.6,0.7v14.5h5.4c0.3,0,0.5,0.1,0.6,0.4c0.1,0.2,0.2,0.5,0,0.7l-9.7,18.9
		C75.3,149.8,75.1,150,74.8,150z M348.8,150c-0.1,0-0.1,0-0.2,0c-0.3-0.1-0.6-0.4-0.6-0.7v-14.4h-5.4c-0.3,0-0.5-0.2-0.6-0.4
		c-0.2-0.2-0.2-0.5,0-0.7l9.7-18.9c0.2-0.3,0.5-0.5,0.9-0.4c0.3,0.1,0.6,0.4,0.6,0.7v14.5h5.4c0.3,0,0.5,0.1,0.6,0.4
		c0.1,0.2,0.2,0.5,0,0.7l-9.7,18.9C349.3,149.8,349.1,150,348.8,150z"/>
</g>
</svg>
